<?xml version="1.0" standalone="no"?>
<!DOCTYPE svg PUBLIC "-//W3C//DTD SVG 20010904//EN"
 "http://www.w3.org/TR/2001/REC-SVG-20010904/DTD/svg10.dtd">
<svg version="1.0" xmlns="http://www.w3.org/2000/svg"
 width="1543.000000pt" height="1543.000000pt" viewBox="0 0 1543.000000 1543.000000"
 preserveAspectRatio="xMidYMid meet">
<metadata>
Created by potrace 1.14, written by Peter Selinger 2001-2017
</metadata>
<g transform="translate(0.000000,1543.000000) scale(0.100000,-0.100000)"
fill="#000000" stroke="none">
<path d="M2117 11994 c-1 -1 -33 -5 -72 -9 -38 -3 -88 -10 -110 -15 -22 -5
-53 -11 -69 -14 -55 -10 -211 -65 -286 -101 -172 -84 -402 -268 -491 -394 -18
-25 -36 -48 -39 -51 -15 -11 -86 -130 -127 -212 -68 -136 -117 -301 -139 -468
-13 -97 -11 -5916 2 -6027 23 -195 61 -327 139 -483 201 -404 582 -690 1023
-769 149 -27 386 -23 527 8 187 42 355 116 515 225 65 44 255 222 301 282 80
104 156 239 209 372 l37 94 30 -39 c16 -21 101 -132 188 -248 160 -212 299
-364 405 -441 368 -270 812 -345 1255 -213 94 29 316 138 390 194 110 81 119
89 203 175 180 181 305 403 368 652 32 126 39 192 39 358 0 217 -26 348 -107
550 -44 110 -137 269 -203 348 -8 9 -46 60 -85 112 -39 52 -83 110 -98 129
-106 135 -256 344 -276 386 -32 67 -56 125 -51 125 3 0 0 12 -5 26 -21 54 -28
186 -16 282 8 60 52 188 83 242 15 25 130 182 257 350 301 398 351 481 421
695 56 173 69 260 70 455 0 96 -3 195 -7 220 -27 167 -78 321 -156 473 -30 59
-59 107 -64 107 -4 0 -8 5 -8 11 0 18 -98 139 -174 215 -223 222 -509 360
-827 400 -65 9 -245 9 -314 1 -53 -7 -84 -12 -180 -32 -54 -12 -204 -66 -275
-100 -121 -59 -263 -159 -358 -253 -107 -106 -119 -119 -256 -302 -173 -228
-181 -239 -186 -239 -3 -1 -5 356 -5 792 1 744 -4 913 -28 993 -4 10 -8 30
-11 44 -10 58 -61 201 -101 285 -76 157 -194 320 -313 429 -25 22 -50 46 -56
51 -23 21 -123 93 -171 123 -167 104 -415 185 -605 198 -84 6 -191 10 -193 8z
m1478 -5111 c-1 -2000 -3 -2175 -18 -2263 -10 -52 -23 -115 -30 -139 l-13 -43
-157 208 -157 209 -502 -1 c-277 0 -508 2 -515 4 -6 2 118 134 275 294 158
159 286 294 284 299 -1 5 -77 109 -168 230 -220 292 -265 368 -332 561 -122
346 -97 752 67 1090 40 82 129 224 180 285 14 17 42 53 61 80 28 38 144 192
187 248 5 6 21 28 37 50 17 22 33 42 36 45 3 3 30 39 60 80 30 41 64 86 77
100 13 14 23 28 23 32 0 3 6 13 13 20 7 7 37 47 67 88 30 41 57 77 60 80 4 3
26 32 50 64 24 33 49 67 56 75 7 9 34 45 61 81 26 36 50 67 53 70 3 3 23 30
45 60 22 30 59 80 82 110 24 30 46 60 51 65 44 60 63 85 65 85 1 0 2 -975 2
-2167z"/>
<path d="M9087 8734 c-1 -2 -34 -6 -72 -9 -38 -4 -72 -8 -75 -10 -3 -2 -26 -6
-50 -10 -108 -15 -289 -68 -417 -120 -154 -64 -369 -186 -470 -269 -10 -8 -38
-31 -63 -51 -60 -49 -181 -167 -233 -228 -23 -27 -47 -54 -53 -61 -17 -18
-124 -164 -124 -170 0 -2 -16 -28 -35 -58 -48 -72 -135 -253 -175 -361 -36
-100 -86 -290 -94 -361 -3 -26 -8 -51 -10 -54 -7 -12 -19 -194 -19 -292 -1
-223 30 -413 102 -635 14 -44 26 -82 26 -85 0 -3 6 -15 13 -27 7 -13 11 -23 8
-23 -2 0 24 -57 59 -127 202 -412 524 -737 931 -941 177 -88 402 -162 574
-187 19 -3 44 -7 55 -10 11 -2 61 -7 110 -11 116 -10 4330 -10 4455 -1 78 6
159 18 280 42 386 76 794 315 1085 635 146 161 300 406 376 600 67 173 121
384 137 543 9 94 9 374 0 458 -52 461 -260 891 -588 1219 -123 123 -178 168
-314 260 -218 147 -516 272 -734 306 -20 3 -40 8 -43 10 -4 2 -31 6 -60 10
-30 3 -65 8 -79 12 -25 6 -4497 12 -4503 6z"/>
</g>
</svg>
