<?xml version="1.0" standalone="no"?>
<!DOCTYPE svg PUBLIC "-//W3C//DTD SVG 20010904//EN"
 "http://www.w3.org/TR/2001/REC-SVG-20010904/DTD/svg10.dtd">
<svg version="1.0" xmlns="http://www.w3.org/2000/svg"
 width="960.000000pt" height="960.000000pt" viewBox="0 0 960.000000 960.000000"
 preserveAspectRatio="xMidYMid meet">
<metadata>
Created by potrace 1.14, written by Peter Selinger 2001-2017
</metadata>
<g transform="translate(0.000000,960.000000) scale(0.100000,-0.100000)"
fill="#000000" stroke="none">
<path d="M1215 7453 c-371 -63 -666 -366 -723 -743 -9 -59 -9 -3750 0 -3815
27 -194 114 -361 266 -512 45 -45 91 -85 102 -88 11 -4 20 -11 20 -16 0 -5 4
-9 10 -9 5 0 32 -13 60 -30 28 -16 57 -30 65 -30 8 0 15 -4 15 -10 0 -5 8 -10
18 -10 9 0 41 -9 70 -19 29 -11 54 -19 55 -19 1 0 26 -3 55 -7 139 -19 286 -7
402 32 234 79 415 239 518 458 51 108 53 114 40 138 -11 22 -108 154 -140 192
-10 11 -23 29 -31 39 -13 18 -32 19 -328 21 -173 1 -316 3 -318 3 -3 1 74 81
170 177 96 97 175 180 177 185 3 8 -76 119 -98 140 -3 3 -17 21 -30 40 -13 19
-27 37 -30 40 -4 3 -25 32 -47 65 -65 97 -108 200 -138 328 -4 19 -18 155 -17
172 2 43 12 144 17 162 3 13 7 33 10 45 12 54 40 134 49 140 6 4 7 8 3 8 -14
0 87 170 135 224 5 6 56 74 114 151 57 77 110 147 117 155 7 8 28 37 47 64 19
27 45 61 58 75 13 14 31 38 40 53 9 16 20 28 24 28 4 0 8 7 8 15 0 8 5 15 10
15 6 0 10 4 10 10 0 5 10 20 23 33 12 13 67 84 121 158 55 74 97 124 94 112
-4 -13 -2 -26 3 -29 5 -3 6 -10 2 -17 -9 -14 -8 -341 1 -356 4 -6 4 -11 -1
-11 -7 0 -9 -203 -3 -227 1 -5 1 -12 0 -18 -5 -19 -1 -165 5 -174 3 -6 2 -12
-2 -14 -10 -6 -9 -129 0 -145 4 -6 4 -13 0 -15 -10 -7 -8 -261 2 -277 5 -7 4
-11 -1 -7 -10 6 -11 -134 0 -151 3 -6 3 -13 -1 -15 -9 -6 -8 -121 2 -136 3 -6
3 -11 -2 -11 -9 0 -9 -142 0 -157 3 -5 3 -14 -1 -20 -9 -14 -6 -129 4 -144 4
-7 3 -10 -2 -6 -10 6 -11 -134 0 -151 3 -6 3 -13 -1 -15 -9 -6 -8 -121 2 -136
3 -6 3 -11 -2 -11 -7 0 -9 -143 -2 -160 1 -3 1 -9 0 -14 -1 -5 -4 -79 -6 -165
-2 -92 -10 -180 -19 -216 -15 -62 -13 -73 26 -120 22 -26 45 -56 63 -81 110
-152 180 -233 250 -289 28 -22 55 -44 61 -50 19 -18 198 -104 226 -109 15 -3
31 -7 36 -10 5 -3 22 -7 38 -10 16 -3 50 -9 75 -14 47 -9 212 -7 259 2 14 3
39 8 55 12 75 15 198 66 270 112 134 87 224 182 313 333 24 40 70 155 83 209
32 128 31 319 -2 445 -28 104 -112 271 -170 338 -37 43 -253 335 -274 371 -70
120 -77 285 -16 406 21 44 125 195 151 220 38 37 240 329 240 347 0 4 9 25 20
48 42 87 62 193 64 335 1 150 -5 203 -36 300 -46 145 -126 271 -232 369 -22
20 -47 43 -55 51 -24 22 -76 55 -157 98 -148 79 -390 110 -564 73 -110 -24
-280 -103 -358 -166 -55 -45 -202 -204 -202 -219 0 -6 -32 -46 -62 -78 -10
-10 -18 -21 -18 -25 -1 -5 -14 -24 -30 -43 -34 -39 -32 -43 -31 80 1 100 1
129 -2 165 -1 17 1 37 5 46 4 9 4 19 1 23 -6 5 -6 46 -2 164 0 18 -1 36 -4 38
-2 3 -1 21 3 40 4 18 5 34 1 34 -8 0 -7 213 2 227 4 5 4 13 1 16 -4 3 -8 48
-9 99 -4 98 -11 151 -30 208 -1 3 -5 19 -10 35 -16 59 -87 199 -125 248 -137
173 -267 265 -462 326 -118 37 -263 46 -393 24z"/>
<path d="M5778 5445 c-2 -2 -44 -6 -93 -9 -50 -3 -99 -8 -110 -10 -11 -2 -40
-7 -65 -12 -25 -4 -47 -8 -50 -9 -55 -14 -106 -30 -150 -47 -93 -35 -110 -43
-110 -50 0 -5 -3 -7 -7 -6 -21 5 -186 -100 -263 -167 -40 -34 -113 -108 -150
-151 -63 -72 -167 -237 -162 -256 1 -5 -1 -8 -6 -8 -21 0 -97 -238 -118 -370
-10 -57 -11 -310 -2 -370 25 -174 115 -413 194 -517 13 -17 24 -36 24 -41 0
-6 3 -12 8 -14 4 -1 25 -25 47 -53 41 -51 114 -126 176 -180 81 -72 277 -184
374 -215 22 -7 49 -16 60 -21 20 -8 121 -32 180 -44 17 -3 83 -8 149 -11 65
-2 122 -6 126 -9 5 -3 11 -1 14 4 4 5 18 6 34 2 15 -5 36 -5 47 -1 11 4 29 4
41 0 11 -5 27 -5 34 0 7 5 23 5 34 0 12 -4 30 -4 41 0 11 4 32 4 46 0 15 -4
32 -4 39 0 7 4 25 4 40 0 15 -4 33 -4 40 0 7 5 23 5 35 0 12 -5 27 -5 34 0 7
4 28 4 46 0 18 -4 38 -4 45 0 7 4 27 4 45 0 18 -4 39 -4 45 0 7 4 26 4 41 0
16 -5 31 -5 34 0 3 5 18 5 34 0 15 -4 34 -4 41 0 7 4 24 4 39 0 14 -4 35 -4
46 0 11 4 27 4 35 0 8 -4 24 -4 35 0 11 4 29 4 40 0 11 -4 29 -4 40 0 11 4 32
4 47 -1 15 -4 30 -4 33 1 3 4 20 5 37 1 18 -4 42 -6 53 -5 11 1 32 3 48 3 15
1 39 1 55 2 15 0 34 0 42 0 8 -1 26 -1 40 0 14 0 32 0 40 0 8 -1 26 -1 40 0
14 0 36 1 50 1 14 -1 41 -1 60 -1 19 0 44 -1 55 -1 11 -1 27 -1 35 0 8 0 26 0
40 -1 14 0 31 0 38 0 6 1 20 1 30 1 9 0 31 0 47 1 17 0 39 0 50 -1 11 -1 27
-1 35 0 8 0 26 0 40 -1 14 0 32 0 40 0 8 1 24 1 35 1 11 -1 27 -1 35 -1 8 1
29 1 45 0 67 -1 81 -1 108 0 69 2 83 3 97 2 8 -1 26 -1 40 0 14 0 31 0 38 0 6
-1 18 -1 25 -2 22 -1 231 11 273 16 95 11 293 78 394 133 61 33 170 106 197
131 12 12 25 21 29 21 15 0 168 168 219 241 89 126 178 323 200 440 3 13 7 35
10 49 16 79 19 118 20 245 0 188 -11 260 -71 445 -3 8 -5 16 -4 18 0 1 -6 15
-13 30 -8 15 -21 41 -28 57 -93 206 -275 410 -479 539 -143 91 -271 140 -475
181 -16 3 -84 8 -149 10 -65 3 -121 7 -124 9 -2 3 -12 1 -21 -4 -10 -5 -23 -5
-31 0 -8 5 -21 5 -30 0 -9 -5 -22 -5 -30 0 -7 4 -24 4 -36 0 -14 -6 -26 -5
-29 0 -3 5 -18 5 -35 0 -17 -5 -30 -5 -30 0 0 5 -13 5 -30 0 -17 -5 -30 -5
-30 0 0 5 -13 5 -30 0 -16 -5 -30 -6 -30 -2 0 4 -16 7 -35 7 -19 0 -35 -3 -35
-7 0 -4 -13 -3 -30 2 -17 5 -30 5 -30 0 0 -5 -12 -5 -27 -1 -16 4 -39 5 -53 1
-14 -4 -35 -3 -47 1 -12 5 -25 4 -28 -1 -3 -6 -15 -6 -29 0 -13 5 -27 6 -30 3
-8 -8 -76 -9 -76 -1 0 4 -13 3 -30 -2 -17 -5 -30 -5 -30 0 0 5 -13 5 -30 0
-17 -5 -30 -5 -30 0 0 5 -13 5 -30 0 -17 -5 -30 -5 -30 0 0 5 -13 5 -30 0 -17
-5 -32 -5 -35 0 -3 5 -15 6 -29 0 -12 -4 -29 -4 -36 0 -8 5 -21 5 -30 0 -9 -5
-22 -5 -29 -1 -7 5 -29 5 -50 1 -21 -4 -47 -3 -59 1 -12 5 -24 4 -27 -1 -3 -6
-15 -6 -29 0 -13 5 -27 6 -30 3 -8 -8 -76 -9 -76 -1 0 4 -13 3 -30 -2 -17 -5
-30 -5 -30 0 0 5 -13 5 -30 0 -17 -5 -30 -5 -30 0 0 5 -13 5 -30 0 -17 -5 -30
-5 -30 0 0 5 -13 5 -30 0 -17 -5 -32 -5 -35 0 -3 5 -15 6 -29 0 -12 -4 -29 -4
-36 0 -8 5 -21 5 -30 0 -9 -5 -22 -5 -28 -1 -7 4 -35 5 -62 1 -27 -4 -55 -3
-62 1 -6 4 -19 4 -28 -1 -9 -5 -22 -5 -30 0 -8 5 -21 5 -30 0 -9 -5 -22 -5
-30 0 -7 4 -24 4 -36 0 -14 -6 -26 -5 -29 0 -3 5 -18 5 -35 0 -17 -5 -30 -5
-30 0 0 5 -13 5 -30 0 -17 -5 -30 -5 -30 0 0 5 -13 5 -30 0 -16 -5 -30 -6 -30
-2 0 4 -16 7 -35 7 -19 0 -35 -3 -35 -7 0 -4 -13 -3 -30 2 -17 5 -30 5 -30 0
0 -5 -13 -5 -29 0 -16 4 -31 7 -33 5z"/>
</g>
</svg>
