<?xml version="1.0" standalone="no"?>
<!DOCTYPE svg PUBLIC "-//W3C//DTD SVG 20010904//EN"
 "http://www.w3.org/TR/2001/REC-SVG-20010904/DTD/svg10.dtd">
<svg version="1.0" xmlns="http://www.w3.org/2000/svg"
 width="512.000000pt" height="512.000000pt" viewBox="0 0 512.000000 512.000000"
 preserveAspectRatio="xMidYMid meet">
<metadata>
Created by potrace 1.14, written by Peter Selinger 2001-2017
</metadata>
<g transform="translate(0.000000,512.000000) scale(0.100000,-0.100000)"
fill="#000000" stroke="none">
<path d="M721 3909 c-164 -32 -313 -177 -350 -340 -7 -28 -11 -396 -11 -1014
0 -779 3 -980 14 -1020 47 -176 189 -305 366 -335 186 -32 384 75 468 251 l29
61 77 -99 c109 -141 181 -190 320 -214 191 -33 386 73 474 258 36 76 37 81 37
193 0 108 -2 119 -31 180 -17 36 -67 114 -112 172 -95 125 -110 153 -118 210
-10 71 10 118 107 250 50 67 100 140 110 161 35 67 52 156 46 237 -17 244
-203 420 -442 420 -151 0 -276 -66 -373 -197 -88 -119 -82 -133 -82 180 0 242
-2 283 -19 336 -37 120 -123 220 -234 272 -97 45 -181 57 -276 38z m537 -1744
c-3 -555 -7 -646 -27 -645 -3 0 -26 27 -49 60 l-44 60 -164 0 c-90 0 -164 3
-164 7 0 4 40 48 90 98 l89 90 -45 60 c-109 143 -137 212 -137 340 0 70 5 104
23 150 30 78 25 71 240 355 l185 245 3 -105 c2 -58 2 -379 0 -715z"/>
<path d="M2972 2243 l3 -228 95 -3 c130 -5 192 10 239 57 43 43 61 96 61 180
0 70 -19 123 -58 164 -45 47 -82 57 -218 57 l-124 0 2 -227z m233 131 c43 -20
65 -67 65 -137 0 -95 -64 -153 -160 -145 l-35 3 -3 148 -3 147 52 0 c28 0 66
-7 84 -16z"/>
<path d="M3515 2356 c-42 -18 -83 -69 -91 -112 -3 -19 -4 -59 -2 -88 8 -96 68
-149 168 -149 65 0 110 20 142 65 20 28 23 45 23 115 0 88 -11 115 -68 157
-34 25 -129 32 -172 12z m122 -78 c7 -5 17 -25 24 -45 34 -103 -55 -198 -120
-129 -63 67 -15 211 64 189 11 -3 25 -10 32 -15z"/>
<path d="M3894 2356 c-63 -28 -101 -110 -91 -199 12 -97 70 -150 166 -151 67
0 114 22 141 67 29 47 26 57 -20 57 -28 0 -46 -7 -64 -25 -32 -32 -70 -32
-101 0 -21 20 -25 34 -25 83 0 86 32 117 102 99 15 -4 30 -16 33 -27 5 -16 15
-20 52 -20 44 0 45 1 39 26 -11 41 -34 71 -71 88 -40 19 -119 20 -161 2z"/>
<path d="M4244 2356 c-42 -19 -64 -52 -64 -99 0 -48 32 -82 91 -96 24 -6 57
-15 74 -19 35 -9 45 -40 19 -59 -26 -19 -57 -16 -87 7 -30 24 -107 28 -107 6
0 -8 11 -28 25 -45 51 -60 191 -62 250 -4 35 36 43 88 18 121 -19 26 -40 35
-143 64 -46 13 -65 42 -38 59 21 14 75 10 88 -6 12 -14 100 -22 100 -10 0 23
-37 69 -65 81 -43 18 -120 17 -161 0z"/>
</g>
</svg>
